<svg width="216" height="208" viewBox="0 0 216 208" fill="none" xmlns="http://www.w3.org/2000/svg">
<defs>
  <linearGradient id="g" x1="108" y1="0" x2="108" y2="208" gradientUnits="userSpaceOnUse">
    <stop offset="0%" stop-color="#8EE820"/>
    <stop offset="45%" stop-color="#58CC02"/>
    <stop offset="100%" stop-color="#3A8E00"/>
  </linearGradient>
  <linearGradient id="gb" x1="108" y1="100" x2="108" y2="208" gradientUnits="userSpaceOnUse">
    <stop offset="0%" stop-color="#C8F06A"/>
    <stop offset="100%" stop-color="#9ED840"/>
  </linearGradient>
</defs>
<!-- Main body -->
<path d="M82.5 207L80 206L79.5 205.5L71 205L65 203.5L59 201.5L52.5 199.5L46 196.5L39 194L32 190L26 186.5L22 182.5L18 179L15 176L12 173L10 169.5L7 164.5L5 159.5L3.5 156L2.5 152.5L1.5 149L1 144.5L0.5 142.5L0 139L0.5 134.5L1 130L1.5 124V121.5L2.5 119L4 115.5L5 113L6.5 111L8.5 108.5L10.5 106.5L12 106L14.5 104.5L16 104L17.5 103.5V101.5L18 95.5L18.5 87L19.5 80L20 74.5V65.5L20.5 63L21.5 61V49L23 46L24 39L25 35L26 31.5L28 27.5L30.5 23.5L33 20L36.5 15L41 9.5L45 7L48.5 5L53 3L57 1.5H69L74.5 2L79 5L86 9.5L95.5 16.5L102.5 20H122.5L128.5 18.5L136.5 13.5L149.5 7.5L158 4L163.5 2L169.5 0H174H180.5L186.5 0.5L192 2L198.5 5.5L204 10L208.5 15.5L212 22L214 27L215 32.5L216 41V72V96.5L215.5 117V141.5L215 151L214 156L212 160.5L208 167.5L204.5 174L199.5 179.5L194 185L188 189.5L183 193L177 196L168.5 199L164 200.5L157 203L150.5 204L143 205.5L136.5 206.5L132 207.5H95L90 207H86.5H82.5Z" fill="url(#g)"/>
<!-- Head shimmer -->
<ellipse cx="108" cy="12" rx="55" ry="14" fill="#B4FF50" opacity="0.20"/>
<!-- Lighter belly / underside -->
<path d="M75.5 204L76.5 205L80 206L82.5 207L132 207.5L140.5 206L147.5 205L157.5 203L177 196L182.5 193.5L187.5 190L193.5 185.5L197.5 181.5L201 177.5L204.5 173.5L209.5 165L210.5 162.5L212 159.5L213 156.5V154.5V151.5V148.5L212 147L211.5 145L210.5 143L209.5 140L207.5 136.5L205 133.5L203.5 131.5L201.5 130L200.5 129.5L198.314 127.5L196 127L194 126L191.5 125.5H186.5H181.5L178.5 127L175 127.5L171.5 129L166.5 133L163 136L159.5 141L156.5 146L154 151L153 156L151.5 161L150.5 166.5L149.5 171.5L148.5 175L145 182L141.5 188L137.5 192L134 194.5L130.5 196L127.5 198L124.5 199L122.5 199.5L119 200L118 200.5L116 201L114 201.5H95.5H92.5L89.5 201L88 200.5L82.5 200L81.5 199.5L80.5 199L79 198.5L77 197.5L75 196.5H74L73 197.5L72.5 199L73 201L74 202.5L75.5 204Z" fill="url(#gb)"/>
<!-- Dark belly oval -->
<path d="M72.5 193.5L75 196.5L77.5 198L80.5 199L82.5 200L87.5 200.5L90.5 201L93 201.5H114L116 201L118.5 200.5L120 200H122.5L124 199.5L125.5 199L129 197.5L132 195.5L133 194.5L133.5 192.5L134 189.5L135 186V179V175L134 172.5L133 170L132 167L131 164.5L129 161.5L127.5 158.5L125 155.5L123 153.5L121.5 152.5L121 151.5L119 150.5L118.5 149.5L116 148.5L113 147L111.5 146.5L109.5 145.5L108 145L107 144.5H105.5H96.5L92.5 145L90.5 145.5L89.5 146L87 147L84.5 148.5L81 151.5L78.5 153.5L77 155.5L75 157.5L74 159.5L72.5 161.5L71.5 163.5L71 167L70 170.5L69 173V182L69.5 185.5L70 188L70.5 191L72.5 193.5Z" fill="#1A1F10"/>
<!-- Mouth interior -->
<path d="M83 197.5L82 200L87.5 200.5L91 201.5L95.5 202H112.5L117 201L119.5 200L123.5 199.5L126 198.5L129.5 197.5L132 195.5L132.5 194.5V193C132.333 192.667 132 191.9 132 191.5C132 191.1 131.667 190.667 131.5 190.5L129.5 189.5L128 188.5L126.5 187.5L125 186.5L123 185L121.5 184.5L120.5 183.5H118L114 182.5H110.5L105 183L99 183.5L95 185L92 187L89.5 189.5L86.5 192L84.5 195.5L83 197.5Z" fill="#E85868"/>
<!-- White tooth -->
<path d="M91.5 147.5L90.5 145.5L92.5 145L96.5 144.5H106V147L105.5 148.5L105 151L104 153L102.5 155L101 156.5L99.5 157.5H97.5L96 155.5L94 153.5L93 150.5L91.5 147.5Z" fill="#FFFFFF"/>
<!-- Nostril / eye-ridge bumps -->
<path d="M19.8816 121.247C21.9335 124.656 21.9566 128.407 19.9332 129.625C17.9098 130.843 14.6061 129.066 12.5542 125.657C10.5023 122.248 10.4792 118.498 12.5026 117.28C14.526 116.062 17.8297 117.838 19.8816 121.247Z" fill="#236200"/>
<path d="M71.1556 128.541C68.578 131.572 65.0299 132.788 63.2308 131.258C61.4318 129.728 62.063 126.031 64.6406 123C67.2183 119.969 70.7663 118.752 72.5654 120.282C74.3645 121.812 73.7333 125.51 71.1556 128.541Z" fill="#236200"/>
<!-- Scale details -->
<path d="M31.5 105L29.5 104.5L32.5 106L33.5 106.5L34.5 107.5L35.5 108.5L36.5 109.5H50.5L51.5 108.5L53 107.5L55 106.5L56.5 106L58.5 104.5L61 103.5L63.5 102.5H72.5L75 103.5L77 104.5H78.5L81 106.5L83.5 108.5L86.5 111.5L89.5 115.5L90.5 116.5V115.5L90 114.5L89.5 113L88.5 111L85.5 107.5L84 106L82.5 105L81.5 104L80.5 103.5V102V101L81.5 100L83.5 99.5L86 98.5L88.5 97.5L91 96.5H98.5L104.5 97L106 97.5L107.5 98.5H111.5L109.5 97.5L108 96.5L105.5 95.5L104 95L101.5 94H90.5L89.5 95L87 95.5L86 96L83.5 97.5L81.5 98.5L79.5 100L77.5 101.5H75L74 100.5H63L60.5 101.5L58.5 102.5L55.5 103.5L52.5 105.5L50.5 106.5H39H35.5L33 105.5L31.5 105Z" fill="#3D9100"/>
<path d="M43.5 71.5H41.5L40.5 72L40 72.5L39.5 73.5V74.5L40 76L41 77.5L42.5 79.5L44 81L45.5 82L47 83L49 84.5L51 85.5L53 86L54.5 87H56H64.5L67 86.5L68.5 85.5L70.5 85L73 84L75.5 82.5L78.5 80.5L81 78L82.5 76.5L83 75.5L83.5 74.5V73.5L82.5 72.5L81.5 71.5H79.5L78.5 72.5L77.5 73.5L77 74.5L75 76.5L72.5 78.5L70 79.5L66.5 80.5L64 81.5H57.5L56.5 81L53.5 80L51 78.5L49 77L46.5 75L45.5 73.5L45 72.5L43.5 71.5Z" fill="#236200"/>
<path d="M136 71.5H135L134 72L133 72.5L132.5 73.5V74.5L133 76L133.5 77.5L134 79L137 81.5L140 84.5L144 87L147 88L149 89L151.5 90H160.5L163 89.5L165 89L166 88.5L167 87.5H169L170 87L171 86L172 85.5L173.5 85L175.5 83.5L177 82.5L179 80.5L180.5 79L181.5 77.5L182.5 76.5V75V73.5L182 72.5L181 71.5H180L179 72L178 72.5L177 73.5L176 75L174.5 76.5L173 78.5L171.5 79.5L170 80.5L167.5 81.5L166 82.5L164.5 83L163.5 83.5H162H160H154.5L151.5 83L149 82L147.5 81L146 80.5L143.5 79L141 76.5L139.5 75L138.5 73.5L137.5 73L137 72.5L136 71.5Z" fill="#236200"/>
</svg>
