<svg width="238" height="229" viewBox="0 0 238 229" fill="none" xmlns="http://www.w3.org/2000/svg">
<defs>
  <linearGradient id="g" x1="119" y1="0" x2="119" y2="229" gradientUnits="userSpaceOnUse">
    <stop offset="0%" stop-color="#8EE820"/>
    <stop offset="45%" stop-color="#58CC02"/>
    <stop offset="100%" stop-color="#3A8E00"/>
  </linearGradient>
  <linearGradient id="gb" x1="119" y1="133" x2="119" y2="229" gradientUnits="userSpaceOnUse">
    <stop offset="0%" stop-color="#C8F06A"/>
    <stop offset="100%" stop-color="#9ED840"/>
  </linearGradient>
</defs>
<!-- Body blobs -->
<path d="M236.179 163.5C236.179 189.734 198.631 230.744 119.679 228C39.2276 225.204 0.444464 180.234 0.444464 154C0.444464 127.766 55.047 133 117.179 133C179.311 133 236.179 137.267 236.179 163.5Z" fill="url(#g)"/>
<path d="M236.179 163.5C236.179 184.073 212.679 231.232 119.679 228C-9.82111 223.5 0.178973 153.573 0.178973 133C0.178973 112.427 49.9121 95 119.679 95C189.446 95 236.179 142.927 236.179 163.5Z" fill="url(#g)"/>
<path d="M129.179 89.5C129.179 128.988 101.383 143 70.1785 143C-0.321186 161 19.1785 110.988 19.1785 71.5C19.1785 32.0116 38.9744 0 70.1785 0C101.383 0 129.179 50.0116 129.179 89.5Z" fill="url(#g)"/>
<path d="M235.089 64.5C235.089 104.541 246.224 193 216.679 193C187.134 193 125.179 180.5 125.179 56.4999C125.179 16.4593 170.528 1.49994 200.074 1.49994C230.679 1.49994 240.179 31 235.089 64.5Z" fill="url(#g)"/>
<path d="M162.179 14C162.179 27.531 145.39 69.5 124.679 69.5C103.968 69.5 87.1788 27.531 87.1788 14C87.1788 0.469061 103.968 22.5 124.679 22.5C145.39 22.5 162.179 0.469061 162.179 14Z" fill="url(#g)"/>
<!-- Head shimmer -->
<ellipse cx="119" cy="20" rx="52" ry="17" fill="#B4FF50" opacity="0.22"/>
<!-- Jaw / belly -->
<path d="M193.5 142.5L190 145.5L188.5 149.5L184 156.5L174.5 164.5L167.5 168.5L158 172L148 175L135.5 177.5L117 180.5L107 181L78.5 181.5H64.5L52 180L42.5 179L33 177.5L26.5 176L20.5 174.5L13.5 172.5L8 171L4 169.5H3L5 174.5L7.5 180L11 186.5L16 193.5L21.5 199L27.5 204L34.5 208.5L42.5 212.5L50.5 216L62 220L73.5 223L87 225.5L99.5 227L112 228L121 228.5H130L142.5 228L153.5 227L165 225L176.5 222.5L186.5 219.5L196 215.5L206.5 209L215 203L223 195L228 188.5L232.5 179.5L234.5 173.5V168.5L233.5 161L230 150L225 142.5L219 138L212 137H203.5L198 139.5L193.5 142.5Z" fill="url(#gb)"/>
<!-- Right eye socket -->
<path d="M196 123H145.5L144.5 121.5L143.5 120L142 116.5L140.5 113L139.5 109L138.5 106L138 102L137.5 99V96.5V93V91V88.5L138 86L138.5 83L139 80L139.5 76.5L140.5 73.5L142 70.5L144 67.5L146 64.5L148 62L151 59.5L153.5 57.5L156.5 55.5L160.5 54L164.5 53L169 52.5H172.5L177.5 53L181.5 54L185.5 55.5L189.5 57.5L192 59L195 61L197.5 63L200.5 66L203 69L205.5 73L206.5 77L207 80V84V88.5L206.5 93.5V97L206 101L205.5 105L204.5 108L203.5 110.5L201.5 114.5L200 117.5L198 120L196 123Z" fill="#FFFFFF"/>
<!-- Right pupil -->
<ellipse cx="169.179" cy="94" rx="16.5" ry="23" fill="#1A1A1A"/>
<!-- Right brow / lid -->
<path d="M207.5 81.5C207.5 93.5 207 91 168.968 91C133.505 91 137.102 88.4 137.102 88.4C137.102 71.24 148.247 52 168.967 52C189.688 52 207.5 66.5662 207.5 81.5Z" fill="#236200"/>
<path d="M137 84.5L207.5 85L206.987 91H137V84.5Z" fill="#236200"/>
<!-- Right sparkle -->
<circle cx="162" cy="95" r="5.5" fill="#FFFFFF"/>
<circle cx="166" cy="101" r="2" fill="#FFFFFF" opacity="0.55"/>
<!-- Left eye socket -->
<path d="M84 115.5L81.5 114.5L79 113L75.5 112H71.5L66.5 113.5L64.25 113.75L62 114L59 115L56.5 116.5L51.5 122H45.5H39.5L38.5 121L37 119.5L36 118L34 114.5L32.5 111.5L31.5 108.5L31 105L30.5 101.5L30 97.5V93.5V88.5V85L30.5 80L31.5 76L32.5 71L34 67.5L36 64L38.5 60.5L41 57.5L44.5 54.5L48.5 52L54.5 50L61.5 49L67.5 49.5L71.5 50.5L76.5 52.5L80 54.5L83.5 57.5L86.5 61.5L89 67L91 73L92.5 79.5V87.5L92 93L91.5 101L90 108L88.5 112.5L87.5 116L84 115.5Z" fill="#FFFFFF"/>
<!-- Left pupil -->
<path d="M80.5 90.4815C80.5 103.184 73.5604 113.482 65 113.482C53 113.482 49.5 103.184 49.5 90.4815C49.5 77.779 56.4396 67.4815 65 67.4815C73.5604 67.4815 80.5 77.779 80.5 90.4815Z" fill="#1A1A1A"/>
<!-- Left brow / lid -->
<path d="M93.4995 84.5C94.002 90 93.4995 88 61.6976 87.5C27.5328 86.9628 30.0411 84.5 30.0411 84.5C30.0411 67.34 41.0816 49 61.6081 49C82.1346 49 91.4895 62.5 93.4995 84.5Z" fill="#236200"/>
<path d="M30 84.5L92.5 84L92 87.5H30V84.5Z" fill="#236200"/>
<!-- Left sparkle -->
<circle cx="57" cy="91" r="5" fill="#FFFFFF"/>
<circle cx="61" cy="97" r="1.8" fill="#FFFFFF" opacity="0.55"/>
<!-- Teeth -->
<path d="M92.5 172.5V176V176.5H106.5V175L105 171L103.5 167.5L101.5 164L99.5 162.5L97 163L95 165.5L94 169L92.5 172.5Z" fill="#FFFFFF"/>
<path d="M146.814 166.535L147.799 169.894L147.939 170.374L161.374 166.434L160.952 164.995L158.387 161.579L155.962 158.642L153.058 155.846L150.717 154.97L148.459 156.153L147.243 159.115L147.268 162.755L146.814 166.535Z" fill="#FFFFFF"/>
<path d="M162.558 174.866L161.658 171.483L161.53 171L148 174.598L148.386 176.048L150.863 179.528L153.212 182.525L156.045 185.393L158.363 186.329L160.65 185.203L161.941 182.273L162.008 178.634L162.558 174.866Z" fill="#FFFFFF"/>
<!-- Chin outline -->
<path d="M8 166L3 165.5L4 169.5L5.5 170.5L10 171.5L17.5 174L32 177.5L43.5 179L56.5 180.5L67 181.5H88.5L106.5 181L117 180.5L125.5 179L134 177.5L140.5 176.5L148.5 175L161 171L168.5 168L174 165L178.5 161.5L183 157.5L186 153.5L188.5 149.5L189.5 147V144.5L188.5 143H186L184.5 144L184 146L182.5 150.5L178 156L168.5 162.5L155.5 168L144.5 171L125.5 174.5L111.5 176.5H82.5H64L53 175.5L42 174L28 171.5L20.5 169.5L13 167.5L8 166Z" fill="#236200"/>
<!-- Nostrils -->
<path d="M21.241 133.247C23.2929 136.656 23.316 140.407 21.2926 141.625C19.2691 142.843 15.9655 141.066 13.9135 137.657C11.8616 134.248 11.8385 130.498 13.862 129.28C15.8854 128.062 19.1891 129.838 21.241 133.247Z" fill="#236200"/>
<path d="M72.515 140.541C69.9374 143.572 66.3893 144.788 64.5902 143.258C62.7911 141.728 63.4223 138.031 66 135C68.5777 131.969 72.1257 130.752 73.9248 132.282C75.7239 133.812 75.0927 137.51 72.515 140.541Z" fill="#236200"/>
<!-- Neck -->
<path d="M96 125L97 129H95L93 127L91 125L89.5 123L88 121L86.5 119.5L85 118L84 116.5L83 115L84 114L85 113L86.5 115L88.5 117L91 119L94 122.5L96 125Z" fill="#3D9100"/>
<path d="M119.5 108.5L122.5 110V110.5H120L117.5 110L116 109.5L113.295 108H99.5L97.5 108.5L96 109L94 110L92 111.5L90 112.5L88.5 114L87.5 116.5L85 113L86 112L89 110L90.5 108.5L92 107.5L94 106.5L96.5 105L100.5 104H110.5L112.5 105L116 106.5L119.5 108.5Z" fill="#3D9100"/>
</svg>
