<svg width="963" height="246" viewBox="0 0 963 246" fill="none" xmlns="http://www.w3.org/2000/svg">
<path d="M839 2.36034e-05H124V245.008L839 246V2.36034e-05Z" fill="#273251"/>
<path d="M124 245.008C192.483 245.008 248 189.939 248 122.008C248 54.0771 192.483 2.36034e-05 124 2.36034e-05C55.5167 2.36034e-05 0 54.0771 0 122.008C0 189.939 55.5167 245.008 124 245.008Z" fill="#273251"/>
<path d="M839 246C907.483 246 963 190.931 963 123C963 55.069 907.483 2.36034e-05 839 2.36034e-05C770.517 2.36034e-05 715 55.069 715 123C715 190.931 770.517 246 839 246Z" fill="#273251"/>
<path d="M835.288 4.00806H128V239.052H835.288V4.00806Z" fill="#1A2440"/>
<path d="M128 239.052C195.745 239.052 250.425 185.988 250.425 120.53C250.425 55.0722 195.745 4.00806 128 4.00806C60.2554 4.00806 5 55.0722 5 120.53C5 185.988 60.2554 239.052 128 239.052Z" fill="#1A2440"/>
<path d="M835.288 239.052C903.032 239.052 958 185.988 958 120.53C958 55.0722 903.032 4.00806 835.288 4.00806C767.543 4.00806 712.575 55.0722 712.575 120.53C712.575 185.988 767.543 239.052 835.288 239.052Z" fill="#1A2440"/>
<rect x="258" y="166.008" width="185" height="13" fill="#F3EDED"/>
<path d="M292 159.008C292 170.054 277.897 179.008 260.5 179.008C243.103 179.008 229 170.054 229 159.008C229 147.962 252.103 133.008 269.5 133.008C286.897 133.008 292 147.962 292 159.008Z" fill="#F3EDED"/>
<ellipse cx="338.5" cy="159.008" rx="20.5" ry="15" fill="#F3EDED"/>
<ellipse cx="404.5" cy="156.008" rx="23.5" ry="23" fill="#F3EDED"/>
<path d="M466 163.008C466 171.845 455.703 179.008 443 179.008C430.297 179.008 420 171.845 420 163.008C420 154.172 424.297 138.008 437 138.008C449.703 138.008 466 154.172 466 163.008Z" fill="#F3EDED"/>
<path d="M434 147.008C434 158.054 403.046 161.008 392 161.008C380.954 161.008 372 152.054 372 141.008C372 129.962 380.954 121.008 392 121.008C403.046 121.008 434 135.962 434 147.008Z" fill="#F3EDED"/>
<circle cx="357.5" cy="134.508" r="29.5" fill="#F3EDED"/>
<circle cx="330" cy="134.008" r="20" fill="#F3EDED"/>
<circle cx="303" cy="149.008" r="25" fill="#F3EDED"/>
<ellipse cx="371.5" cy="153.008" rx="25.5" ry="20" fill="#F3EDED"/>
<rect width="88.2067" height="13" transform="matrix(-1 0 0 1 521.173 101.008)" fill="#F3EDED"/>
<ellipse cx="15.019" cy="20" rx="15.019" ry="20" transform="matrix(-1 0 0 1 535 74.0081)" fill="#F3EDED"/>
<ellipse cx="9.77426" cy="15" rx="9.77426" ry="15" transform="matrix(-1 0 0 1 492.565 79.0081)" fill="#F3EDED"/>
<ellipse cx="11.2046" cy="23" rx="11.2046" ry="23" transform="matrix(-1 0 0 1 462.527 68.0081)" fill="#F3EDED"/>
<ellipse cx="10.9662" cy="16" rx="10.9662" ry="16" transform="matrix(-1 0 0 1 443.932 82.0081)" fill="#F3EDED"/>
<ellipse cx="9.53586" cy="20" rx="9.53586" ry="20" transform="matrix(-1 0 0 1 466.819 56.0081)" fill="#F3EDED"/>
<ellipse cx="14.0654" cy="29.5" rx="14.0654" ry="29.5" transform="matrix(-1 0 0 1 487.797 40.0081)" fill="#F3EDED"/>
<ellipse cx="9.53586" cy="20" rx="9.53586" ry="20" transform="matrix(-1 0 0 1 496.38 49.0081)" fill="#F3EDED"/>
<ellipse cx="11.9198" cy="25" rx="11.9198" ry="25" transform="matrix(-1 0 0 1 511.637 59.0081)" fill="#F3EDED"/>
<ellipse cx="12.1582" cy="20" rx="12.1582" ry="20" transform="matrix(-1 0 0 1 479.215 68.0081)" fill="#F3EDED"/>
<rect width="114.747" height="10.8919" transform="matrix(-1 0 0 1 227.013 192.116)" fill="#2F3C5D"/>
<ellipse cx="19.538" cy="16.7568" rx="19.538" ry="16.7568" transform="matrix(-1 0 0 1 245 169.495)" fill="#2F3C5D"/>
<ellipse cx="12.7152" cy="12.5676" rx="12.7152" ry="12.5676" transform="matrix(-1 0 0 1 189.797 173.684)" fill="#2F3C5D"/>
<ellipse cx="14.5759" cy="19.2703" rx="14.5759" ry="19.2703" transform="matrix(-1 0 0 1 150.722 164.468)" fill="#2F3C5D"/>
<ellipse cx="14.2658" cy="13.4054" rx="14.2658" ry="13.4054" transform="matrix(-1 0 0 1 126.532 176.197)" fill="#2F3C5D"/>
<ellipse cx="12.4051" cy="16.7568" rx="12.4051" ry="16.7568" transform="matrix(-1 0 0 1 156.304 154.413)" fill="#2F3C5D"/>
<ellipse cx="18.2975" cy="24.7162" rx="18.2975" ry="24.7162" transform="matrix(-1 0 0 1 183.595 141.008)" fill="#2F3C5D"/>
<ellipse cx="12.4051" cy="16.7568" rx="12.4051" ry="16.7568" transform="matrix(-1 0 0 1 194.76 148.549)" fill="#2F3C5D"/>
<ellipse cx="15.5063" cy="20.9459" rx="15.5063" ry="20.9459" transform="matrix(-1 0 0 1 214.608 156.927)" fill="#2F3C5D"/>
<ellipse cx="15.8165" cy="16.7568" rx="15.8165" ry="16.7568" transform="matrix(-1 0 0 1 172.43 164.468)" fill="#2F3C5D"/>
<rect x="629.175" y="137.39" width="120.806" height="12.6176" fill="#2F3C5D"/>
<ellipse cx="631.57" cy="130.596" rx="20.5697" ry="19.4118" fill="#2F3C5D"/>
<ellipse cx="681.742" cy="130.596" rx="13.3866" ry="14.5588" fill="#2F3C5D"/>
<path d="M754.708 118.464C754.708 130.793 733.315 150.008 724.84 150.008C716.365 150.008 709.495 140.013 709.495 127.685C709.495 115.356 716.365 105.361 724.84 105.361C733.315 105.361 754.708 106.135 754.708 118.464Z" fill="#2F3C5D"/>
<ellipse cx="749.981" cy="134.479" rx="15.0191" ry="15.5294" fill="#2F3C5D"/>
<path d="M734.505 103.905C734.505 114.626 723.89 132.537 716.678 132.537C709.465 132.537 703.617 123.847 703.617 113.126C703.617 102.405 709.465 93.7139 716.678 93.7139C723.89 93.7139 734.505 93.1843 734.505 103.905Z" fill="#2F3C5D"/>
<ellipse cx="704.977" cy="112.64" rx="19.2637" ry="28.6324" fill="#2F3C5D"/>
<ellipse cx="676.191" cy="106.332" rx="13.0601" ry="19.4118" fill="#2F3C5D"/>
<ellipse cx="657.505" cy="120.89" rx="22.8713" ry="24.2647" fill="#2F3C5D"/>
<ellipse cx="703.291" cy="124.773" rx="16.6516" ry="19.4118" fill="#2F3C5D"/>
<rect x="729.84" y="108.008" width="158.46" height="13" fill="#F3EDED"/>
<ellipse cx="732.981" cy="101.008" rx="26.981" ry="20" fill="#F3EDED"/>
<ellipse cx="798.791" cy="101.008" rx="17.5591" ry="15" fill="#F3EDED"/>
<path d="M894.5 88.5081C894.5 101.211 866.44 121.008 855.323 121.008C844.206 121.008 835.194 110.711 835.194 98.0081C835.194 85.3055 844.206 75.0081 855.323 75.0081C866.44 75.0081 894.5 75.8055 894.5 88.5081Z" fill="#F3EDED"/>
<ellipse cx="888.3" cy="105.008" rx="19.7004" ry="16" fill="#F3EDED"/>
<path d="M868 73.5081C868 84.5538 854.077 103.008 844.616 103.008C835.155 103.008 827.485 94.0537 827.485 83.008C827.485 71.9623 835.155 63.008 844.616 63.008C854.077 63.008 868 62.4624 868 73.5081Z" fill="#F3EDED"/>
<ellipse cx="829.268" cy="82.5081" rx="25.2679" ry="29.5" fill="#F3EDED"/>
<ellipse cx="791.511" cy="76.0081" rx="17.1308" ry="20" fill="#F3EDED"/>
<ellipse cx="767" cy="91.0081" rx="30" ry="25" fill="#F3EDED"/>
<ellipse cx="827.057" cy="95.0081" rx="21.8418" ry="20" fill="#F3EDED"/>
<circle cx="612" cy="151.008" r="77" fill="#C4CDD9"/>
<path d="M682 151.008C682 189.668 650.66 221.008 612 221.008C573.34 221.008 542 189.668 542 151.008C542 112.348 573.34 81.0081 612 81.0081C650.66 81.0081 682 112.348 682 151.008Z" fill="#CFD3DA"/>
<path d="M671.5 170.508C671.5 193.98 631.263 216.508 610 216.508C588.737 216.508 550.5 193.98 550.5 170.508C550.5 147.036 631.737 143.508 653 143.508C674.263 143.508 671.5 147.036 671.5 170.508Z" fill="#D4D7DC"/>
<ellipse cx="622.5" cy="150.508" rx="37.5" ry="30.5" fill="#D4D7DC"/>
<circle cx="576" cy="149.008" r="20" fill="#C4CDD9"/>
<circle cx="641.5" cy="181.508" r="12.5" fill="#C4CDD9"/>
<circle cx="628.5" cy="124.508" r="16.5" fill="#C4CDD9"/>
</svg>
